<svg width="25" height="25" viewBox="0 0 34 34" fill="none" xmlns="http://www.w3.org/2000/svg">
<rect x="0.5" y="0.5" width="33" height="33" rx="11.5" fill="#EDF6F8"/>
<rect x="0.5" y="0.5" width="33" height="33" rx="11.5" stroke="#6EBAC4"/>
<path d="M21.5001 12.5C21.0426 12.5 20.6226 12.2375 20.4126 11.8325L19.8726 10.745C19.5276 10.0625 18.6276 9.5 17.8626 9.5H16.1451C15.3726 9.5 14.4726 10.0625 14.1276 10.745L13.5876 11.8325C13.3776 12.2375 12.9576 12.5 12.5001 12.5C10.8726 12.5 9.58263 13.8725 9.68763 15.4925L10.0776 21.6875C10.1676 23.2325 11.0001 24.5 13.0701 24.5H20.9301C23.0001 24.5 23.8251 23.2325 23.9226 21.6875L24.3126 15.4925C24.4176 13.8725 23.1276 12.5 21.5001 12.5ZM15.8751 13.4375H18.1251C18.4326 13.4375 18.6876 13.6925 18.6876 14C18.6876 14.3075 18.4326 14.5625 18.1251 14.5625H15.8751C15.5676 14.5625 15.3126 14.3075 15.3126 14C15.3126 13.6925 15.5676 13.4375 15.8751 13.4375ZM17.0001 21.59C15.6051 21.59 14.4651 20.4575 14.4651 19.055C14.4651 17.6525 15.5976 16.52 17.0001 16.52C18.4026 16.52 19.5351 17.6525 19.5351 19.055C19.5351 20.4575 18.3951 21.59 17.0001 21.59Z" fill="#6EBAC4"/>
</svg>
