<svg width="92" height="92" viewBox="0 0 92 92" fill="none" xmlns="http://www.w3.org/2000/svg">
<path d="M50.7157 70.9205C50.7157 72.1256 48.9554 73.1026 46.7836 73.1026C44.6122 73.1026 42.8516 72.1256 42.8516 70.9205C42.8516 69.7153 44.6122 68.7383 46.7836 68.7383C48.9554 68.7383 50.7157 69.7153 50.7157 70.9205Z" fill="#0076C4"/>
<path d="M34.4362 21.1523L34.4359 21.1525C28.0101 21.3148 22.6637 23.529 18.3967 27.7961C14.1297 32.063 11.9151 37.4097 11.7529 43.8356C11.759 45.9295 12.029 47.9395 12.5632 49.8658L13.5355 52.6649C14.3068 54.4803 15.2881 56.1575 16.4793 57.6968C20.1973 62.4587 25.157 65.3304 31.3584 66.3118C32.3911 66.4235 33.4026 66.4794 34.3925 66.4794C34.407 66.4794 34.4215 66.4794 34.4359 66.4794L34.4362 66.4797C34.4362 66.4927 34.4362 66.5059 34.4362 66.5191C41.9972 66.5191 49.5586 66.519 57.1197 66.5189C57.1197 66.5058 57.1197 66.4925 57.1197 66.4793L57.1194 66.4796C62.3387 66.4708 66.9592 64.9083 70.9807 61.7924C75.7428 58.0745 78.6145 53.115 79.5958 46.9137L79.8029 43.8356C79.6407 37.4097 77.4261 32.0633 73.1592 27.7961C68.892 23.529 63.5457 21.3145 57.1197 21.1523C57.1168 21.1523 57.1139 21.1523 57.111 21.1525V21.1529L45.7779 21.1525L34.4367 21.1523L34.4362 21.1525C34.4362 21.1523 34.4362 21.1523 34.4362 21.1523Z" fill="#2D9FEC"/>
<path d="M34.4363 32.4922C31.2234 32.5731 28.5501 33.6805 26.4165 35.8141C24.2831 37.9475 23.1758 40.6207 23.0947 43.8337C23.0977 44.8809 23.2327 45.8858 23.4999 46.8489L23.9861 48.2483C24.3716 49.156 24.8622 49.9948 25.4579 50.7641C27.3171 53.1454 29.7969 54.5811 32.8976 55.0718C33.4138 55.1276 33.9195 55.1557 34.4144 55.1557C34.4216 55.1557 34.4289 55.1557 34.436 55.1557L34.4363 55.1559C34.4363 55.1623 34.4363 55.1689 34.4363 55.1756C41.9976 55.1754 49.5587 55.1754 57.1198 55.1754C57.1198 55.1689 57.1198 55.1623 57.1198 55.1554L57.1195 55.1557C59.7292 55.1512 62.0395 54.3703 64.0503 52.8123C66.4312 50.9534 67.867 48.4736 68.3577 45.3727L68.4613 43.8337C68.3804 40.6207 67.2729 37.9475 65.1395 35.8141C63.006 33.6805 60.3328 32.5731 57.1198 32.4922C57.118 32.4922 57.1163 32.4922 57.1145 32.4922V32.4927L45.7781 32.4922H34.4368L34.4363 32.4924C34.4363 32.4922 34.4363 32.4922 34.4363 32.4922Z" fill="#66C2FE"/>
<path d="M35.9036 37.6445C34.4009 37.6826 33.1505 38.2004 32.1525 39.1983C31.1546 40.1963 30.6365 41.4467 30.5986 42.9495C30.6 43.4392 30.6633 43.9095 30.7882 44.3597L31.0156 45.0145C31.0429 45.0794 31.0716 45.1436 31.1016 45.2066V45.2069L40.7029 45.2066V45.2069C40.92 44.737 41.0725 44.2244 41.1603 43.6694L41.2089 42.9495C41.171 41.4467 40.6529 40.1963 39.6549 39.1983C38.6571 38.2004 37.4066 37.6826 35.9036 37.6445ZM57.1241 37.6445C55.7883 37.6784 54.6517 38.0914 53.7149 38.8833C53.1511 39.4202 52.839 39.7592 52.7785 39.9009C52.6043 40.1477 52.4537 40.4069 52.3268 40.6787C52.0728 41.2218 51.9138 41.815 51.8496 42.4579C51.7429 43.3993 51.9043 44.3153 52.3335 45.2066L52.3338 45.2069L61.9231 45.2066V45.2069C62.1405 44.737 62.2929 44.2244 62.3807 43.6694L62.4291 42.9495C62.4207 42.6156 62.3886 42.2942 62.3329 41.9851C62.1518 41.2344 62.0146 40.7988 61.9216 40.6787C61.6676 40.1353 61.319 39.6419 60.8754 39.1983C60.4319 38.7548 59.9385 38.406 59.3953 38.1521C58.6987 37.8779 58.2641 37.7409 58.092 37.7409C58.0906 37.7409 58.0896 37.7409 58.0886 37.7409C57.7797 37.685 57.4582 37.653 57.1241 37.6445Z" fill="#92F4FB"/>
<path d="M14.5136 32.9492C12.847 32.9666 11.2654 33.1479 9.76867 33.4928C8.60676 33.7919 7.5848 34.361 6.70289 35.1998C6.2663 35.628 5.87777 36.1485 5.53739 36.762C5.19834 37.3839 4.91218 38.0899 4.6791 38.8803C4.21191 40.4951 3.96271 42.2431 3.93139 44.1252C3.89422 48.1726 4.71 51.1022 6.37873 52.9135C6.61448 53.1511 6.86379 53.3651 7.12675 53.5554V53.5557L7.12767 53.558C7.31044 53.689 7.49875 53.8085 7.69251 53.9168L8.43107 54.2759C8.91561 54.4743 9.42459 54.6302 9.95811 54.7433V54.7435C9.95821 54.7435 9.95831 54.7435 9.95842 54.7438C9.98706 54.7495 10.0148 54.7551 10.0417 54.7603C11.4573 54.9922 12.8955 55.1078 14.3561 55.1078C14.4855 55.1078 14.6151 55.107 14.7448 55.1052C14.2972 54.3208 13.8942 53.5067 13.5356 52.6627L12.5633 49.8636C12.0291 47.9373 11.7591 45.9273 11.753 43.8334C11.8555 39.7749 12.7766 36.1466 14.5165 32.9492H14.5136ZM78.0514 35.0789C79.1388 37.7322 79.7229 40.6504 79.803 43.8334L79.6871 45.5551L79.5959 46.9115C78.9795 50.8067 77.6173 54.2117 75.5092 57.127L76.1822 57.1691C76.5373 57.1828 76.8914 57.1894 77.2439 57.1894C78.7033 57.1894 80.1408 57.0738 81.5568 56.8424C82.6929 56.6276 83.7049 56.1963 84.5926 55.5478C85.4708 54.9222 86.1812 53.9247 86.7243 52.5552L87.0839 51.4397C87.2947 50.6532 87.4485 49.8154 87.5455 48.9264C87.9227 45.0312 87.4283 41.6703 86.0619 38.8438C85.3724 37.6336 84.5082 36.7612 83.4686 36.2257C82.9533 35.9497 82.4074 35.7326 81.8309 35.5744C81.5676 35.4469 80.6558 35.3005 79.0952 35.1351C78.9324 35.1146 78.585 35.096 78.0535 35.0789H78.0514Z" fill="#0076C4"/>
<path d="M57.1195 18.8828C57.1043 18.8828 57.089 18.883 57.0738 18.8833C57.0721 18.8833 57.0709 18.8833 57.0693 18.8836L45.7782 18.883H34.4368C34.432 18.883 34.4278 18.8833 34.4233 18.8833L34.4197 18.8836C34.415 18.8836 34.4102 18.8836 34.4054 18.8836C34.3821 18.8836 34.3584 18.8841 34.335 18.8852C27.3244 19.0718 21.4769 21.5072 16.7929 26.1911C14.7119 28.272 13.0747 30.5826 11.8813 33.1228C12.734 33.0171 13.6115 32.9598 14.5138 32.9504C15.5306 31.0854 16.8249 29.3669 18.3968 27.795C22.6637 23.528 28.0102 21.3137 34.4359 21.1515H45.778V21.1518H57.1158C57.1171 21.1513 57.1184 21.1513 57.1198 21.1513C63.5458 21.3134 68.8921 23.528 73.1593 27.795C75.3126 29.9486 76.9434 32.3768 78.0513 35.08C78.5841 35.0972 78.9322 35.1158 79.0952 35.1363C79.679 35.1983 80.1718 35.2575 80.5739 35.3141C79.3648 31.8969 77.4279 28.8559 74.7632 26.1913C70.0689 21.4969 64.2069 19.0611 57.1768 18.8836C57.1579 18.883 57.1387 18.8828 57.1195 18.8828Z" fill="#148DDC"/>
<path d="M7.12842 53.5625L7.69623 55.1975C7.70814 55.2314 7.71143 55.2406 7.72272 55.2714C7.74921 55.3439 7.77755 55.4151 7.8063 55.4827C8.73031 57.6576 9.90741 59.669 11.3378 61.5171L11.3442 61.5252L11.3502 61.5329C15.8018 67.234 21.7169 70.6685 29.0954 71.8362C29.1395 71.8433 29.1931 71.8508 29.2307 71.8556L29.2352 71.8562C29.2602 71.8594 29.2954 71.8634 29.3201 71.8662C30.3092 71.973 31.2833 72.0355 32.2431 72.0538C32.2691 72.0578 32.297 72.0616 32.3243 72.0649C32.508 72.0877 32.6952 72.0995 32.8824 72.0995C36.4107 72.0995 39.9387 72.0994 43.4668 72.0993C43.3501 71.9966 43.2481 71.8883 43.1608 71.7743L42.9923 71.5051C42.8998 71.3197 42.8528 71.1264 42.8517 70.9249C42.8704 70.5146 43.046 70.1501 43.378 69.8314C39.8777 69.8312 36.3794 69.8312 32.8824 69.8312C32.7346 69.8312 32.5882 69.8168 32.4452 69.7886C31.5007 69.7759 30.5392 69.7165 29.5609 69.6108C29.5235 69.6067 29.487 69.6019 29.4499 69.596C22.6599 68.5213 17.2224 65.368 13.1376 60.1361L13.1317 60.1287C11.8536 58.4774 10.7957 56.6829 9.95793 54.7452C9.42441 54.6321 8.91544 54.4762 8.4309 54.2778L7.69233 53.9187C7.49991 53.8109 7.31283 53.6924 7.13119 53.5625H7.12842Z" fill="#148DDC"/>
</svg>
