<svg width="25" height="25" viewBox="0 0 34 34" fill="none" xmlns="http://www.w3.org/2000/svg">
<rect x="0.5" y="0.5" width="33" height="33" rx="11.5" fill="#EDF6F8"/>
<rect x="0.5" y="0.5" width="33" height="33" rx="11.5" stroke="#6EBAC4"/>
<path d="M20 9.5H14C11 9.5 9.5 11 9.5 14V23.75C9.5 24.1625 9.8375 24.5 10.25 24.5H20C23 24.5 24.5 23 24.5 20V14C24.5 11 23 9.5 20 9.5ZM16.3325 20.495C16.145 20.6825 15.8 20.855 15.545 20.8925L13.985 21.11C13.925 21.1175 13.865 21.125 13.8125 21.125C13.55 21.125 13.31 21.035 13.1375 20.8625C12.9275 20.6525 12.8375 20.345 12.89 20.015L13.1075 18.455C13.145 18.2 13.3175 17.8475 13.505 17.6675L16.3325 14.84C16.3775 14.975 16.4375 15.11 16.505 15.26C16.5725 15.395 16.64 15.53 16.715 15.6575C16.775 15.7625 16.8425 15.8675 16.9025 15.9425C16.9775 16.055 17.0525 16.1525 17.105 16.205C17.135 16.25 17.165 16.28 17.1725 16.295C17.3375 16.4825 17.51 16.6625 17.675 16.7975C17.72 16.8425 17.75 16.865 17.7575 16.8725C17.855 16.9475 17.945 17.03 18.035 17.0825C18.1325 17.1575 18.2375 17.225 18.3425 17.285C18.47 17.36 18.605 17.435 18.7475 17.5025C18.89 17.57 19.025 17.6225 19.16 17.6675L16.3325 20.495ZM20.4125 16.4225L19.8275 17.0075C19.79 17.045 19.7375 17.0675 19.685 17.0675C19.67 17.0675 19.64 17.0675 19.625 17.06C18.335 16.6925 17.3075 15.665 16.94 14.375C16.9175 14.3075 16.94 14.2325 16.9925 14.18L17.585 13.5875C18.5525 12.62 19.4675 12.6425 20.4125 13.5875C20.8925 14.0675 21.1325 14.5325 21.125 15.0125C21.125 15.485 20.8925 15.9425 20.4125 16.4225Z" fill="#6EBAC4"/>
</svg>
