<?xml version="1.0" standalone="no"?>
<!DOCTYPE svg PUBLIC "-//W3C//DTD SVG 20010904//EN"
 "http://www.w3.org/TR/2001/REC-SVG-20010904/DTD/svg10.dtd">
<svg version="1.0" xmlns="http://www.w3.org/2000/svg"
 width="467.000000pt" height="379.000000pt" viewBox="0 0 467.000000 379.000000"
 preserveAspectRatio="xMidYMid meet">

<g transform="translate(0.000000,379.000000) scale(0.100000,-0.100000)"
fill="#000000" stroke="none">
<path d="M1771 3099 c-120 -23 -260 -128 -310 -232 -45 -92 -51 -138 -51 -382
0 -220 1 -233 23 -275 24 -49 88 -90 139 -90 22 0 32 -8 47 -37 10 -21 33 -51
50 -67 25 -24 31 -38 31 -72 0 -32 -4 -44 -17 -48 -227 -65 -344 -101 -373
-116 -49 -25 -95 -76 -122 -135 -22 -48 -23 -61 -26 -362 l-3 -313 125 0 125
0 23 -43 c16 -29 37 -49 68 -65 l45 -23 428 3 427 3 0 -147 0 -148 535 0 535
0 0 376 0 376 36 -23 c104 -64 223 12 210 133 -3 25 -11 56 -18 68 -7 12 -181
135 -386 272 l-374 249 -181 -119 c-100 -66 -188 -122 -194 -126 -7 -4 -32 4
-55 18 -24 13 -92 39 -153 56 -60 17 -140 40 -177 51 l-68 20 0 43 c0 30 6 48
20 61 11 10 34 40 51 66 23 37 37 49 55 49 40 0 87 25 121 63 41 47 46 89 41
358 -4 199 -5 217 -27 261 -24 50 -75 102 -120 121 -14 6 -48 31 -76 55 -121
108 -261 149 -404 121z m237 -104 c33 -15 79 -46 103 -72 24 -25 67 -55 96
-68 36 -16 60 -36 80 -66 27 -41 28 -46 31 -201 2 -87 1 -158 -3 -158 -4 0
-25 5 -46 12 -37 10 -39 14 -39 50 l0 38 -44 0 c-100 0 -218 37 -314 100 l-61
39 -34 -48 c-40 -55 -103 -91 -160 -91 -36 0 -37 -1 -37 -39 0 -34 -3 -40 -27
-45 -16 -4 -36 -9 -45 -12 -17 -5 -18 6 -18 139 0 164 12 218 63 294 101 146
293 201 455 128z m22 -520 c36 -8 77 -17 93 -20 l27 -5 0 -131 c0 -139 -8
-171 -54 -232 -31 -41 -105 -82 -163 -92 -95 -15 -209 49 -254 143 -20 40 -24
67 -27 179 -4 123 -3 133 14 139 53 16 116 50 139 74 l25 26 68 -33 c37 -18
96 -40 132 -48z m-452 -193 c3 -75 1 -82 -16 -82 -11 0 -31 11 -46 25 -38 35
-36 85 5 120 17 14 37 24 43 22 7 -2 12 -36 14 -85z m713 59 c17 -18 29 -40
29 -56 0 -29 -49 -85 -74 -85 -13 0 -16 14 -16 85 0 97 10 106 61 56z m-392
-422 c36 0 81 5 99 10 31 9 32 8 32 -18 0 -19 -16 -42 -58 -84 -32 -31 -62
-57 -67 -57 -5 0 -35 26 -67 57 -43 42 -58 65 -58 85 0 26 2 27 27 17 15 -5
56 -10 92 -10z m1391 -249 c184 -123 338 -228 342 -234 23 -34 -9 -106 -47
-106 -8 0 -156 95 -330 210 -173 116 -317 210 -320 210 -3 0 -147 -94 -320
-210 -174 -115 -322 -210 -330 -210 -25 0 -55 38 -55 68 0 17 9 37 23 49 49
46 673 453 687 450 9 -2 166 -104 350 -227z m-1452 39 c-2 -4 -29 -28 -61 -54
-38 -31 -59 -42 -62 -33 -2 7 -13 47 -25 88 -12 41 -23 81 -25 87 -2 7 9 16
28 22 30 8 36 5 90 -48 31 -30 56 -59 55 -62z m302 88 c0 -7 -7 -34 -15 -62
-9 -27 -20 -67 -26 -88 l-10 -38 -59 47 c-33 26 -60 50 -60 53 0 3 25 31 56
62 53 53 58 56 85 47 16 -5 29 -15 29 -21z m-510 -167 c24 -82 45 -150 47
-150 3 0 18 10 35 21 l30 22 39 -39 38 -39 -25 -100 c-14 -55 -30 -117 -35
-137 l-10 -38 -89 0 -90 0 0 80 0 80 -40 0 -40 0 0 -95 c0 -77 -3 -97 -15
-101 -9 -4 -27 -26 -41 -50 l-26 -44 -84 0 -84 0 0 256 c0 292 5 319 65 380
34 34 57 45 145 71 58 18 112 32 121 32 12 1 26 -34 59 -149z m701 125 c100
-30 139 -45 139 -54 0 -4 -65 -51 -144 -104 -127 -86 -146 -102 -161 -139 -55
-138 78 -254 203 -176 l32 20 0 -77 c0 -59 -3 -74 -12 -68 -7 4 -85 10 -172
13 l-160 5 -33 134 -34 135 40 39 39 40 28 -22 c15 -12 31 -18 35 -14 4 4 23
67 43 138 46 164 43 155 59 155 7 0 51 -11 98 -25z m857 -263 l202 -135 0
-364 0 -363 -455 0 -455 0 0 135 0 135 105 52 105 53 -105 52 -105 53 0 124 0
123 227 151 c226 150 228 151 253 135 14 -9 116 -77 228 -151z m-1228 118 l45
-39 -34 -35 c-47 -49 -85 -49 -132 0 l-34 36 45 39 c25 21 50 39 55 39 6 0 30
-18 55 -40z m-18 -306 c15 -60 28 -115 28 -121 0 -9 -21 -13 -71 -13 -62 0
-70 2 -65 18 3 9 17 66 32 125 15 62 31 106 37 104 6 -2 24 -53 39 -113z
m-282 -299 l0 -85 -59 0 c-73 0 -111 29 -111 84 0 52 45 86 116 86 l54 0 0
-85z m660 0 l0 -85 -290 0 -290 0 0 85 0 85 290 0 290 0 0 -85z m140 30 c28
-14 50 -27 50 -30 0 -5 -95 -55 -105 -55 -3 0 -5 25 -5 55 0 30 2 55 5 55 3 0
28 -11 55 -25z"/>
<path d="M3096 1360 l-46 -70 -240 0 -240 0 0 -80 0 -80 35 0 c34 0 35 1 35
40 l0 40 175 0 c96 0 175 -2 175 -5 0 -3 -32 -53 -71 -111 l-71 -106 -44 43
-44 43 -30 -30 -30 -29 79 -79 79 -79 118 177 117 176 69 0 68 0 0 -205 0
-205 -295 0 -295 0 0 40 c0 39 -1 40 -35 40 l-35 0 0 -80 0 -80 365 0 365 0 0
285 0 284 -75 3 -75 3 32 49 32 48 -25 19 c-13 10 -29 19 -35 19 -6 0 -32 -31
-58 -70z"/>
</g>
</svg>
