<svg width="40" height="40" viewBox="0 0 40 40" fill="none" xmlns="http://www.w3.org/2000/svg">
<path d="M35.2344 10.5469L27.0312 8.20312L24.6875 0H8.28125C6.33961 0 4.76562 1.57398 4.76562 3.51562V36.4844C4.76562 38.426 6.33961 40 8.28125 40H31.7188C33.6604 40 35.2344 38.426 35.2344 36.4844V10.5469Z" fill="#734BBD"/>
<path d="M10.625 21.1719C11.2722 21.1719 11.7969 20.6472 11.7969 20C11.7969 19.3528 11.2722 18.8281 10.625 18.8281C9.97779 18.8281 9.45312 19.3528 9.45312 20C9.45312 20.6472 9.97779 21.1719 10.625 21.1719Z" fill="#FFF5F5"/>
<path d="M10.625 25.8594C11.2722 25.8594 11.7969 25.3347 11.7969 24.6875C11.7969 24.0403 11.2722 23.5156 10.625 23.5156C9.97779 23.5156 9.45312 24.0403 9.45312 24.6875C9.45312 25.3347 9.97779 25.8594 10.625 25.8594Z" fill="#FFF5F5"/>
<path d="M10.625 30.5469C11.2722 30.5469 11.7969 30.0222 11.7969 29.375C11.7969 28.7278 11.2722 28.2031 10.625 28.2031C9.97779 28.2031 9.45312 28.7278 9.45312 29.375C9.45312 30.0222 9.97779 30.5469 10.625 30.5469Z" fill="#FFF5F5"/>
<path d="M35.2344 10.5469V36.4844C35.2344 38.426 33.6604 40 31.7188 40H20V0H24.6875L27.0312 8.20312L35.2344 10.5469Z" fill="#5F45A9"/>
<path d="M27.0312 21.1719H15.3125C14.6648 21.1719 14.1406 20.6477 14.1406 20C14.1406 19.3523 14.6648 18.8281 15.3125 18.8281H27.0312C27.679 18.8281 28.2031 19.3523 28.2031 20C28.2031 20.6477 27.679 21.1719 27.0312 21.1719Z" fill="#FFF5F5"/>
<path d="M27.0312 25.8594H15.3125C14.6648 25.8594 14.1406 25.3352 14.1406 24.6875C14.1406 24.0398 14.6648 23.5156 15.3125 23.5156H27.0312C27.679 23.5156 28.2031 24.0398 28.2031 24.6875C28.2031 25.3352 27.679 25.8594 27.0312 25.8594Z" fill="#FFF5F5"/>
<path d="M27.0312 30.5469H15.3125C14.6648 30.5469 14.1406 30.0227 14.1406 29.375C14.1406 28.7273 14.6648 28.2031 15.3125 28.2031H27.0312C27.679 28.2031 28.2031 28.7273 28.2031 29.375C28.2031 30.0227 27.679 30.5469 27.0312 30.5469Z" fill="#FFF5F5"/>
<path d="M20 30.5469H27.0312C27.679 30.5469 28.2031 30.0227 28.2031 29.375C28.2031 28.7273 27.679 28.2031 27.0312 28.2031H20V30.5469Z" fill="#E3E7EA"/>
<path d="M20 25.8594H27.0312C27.679 25.8594 28.2031 25.3352 28.2031 24.6875C28.2031 24.0398 27.679 23.5156 27.0312 23.5156H20V25.8594Z" fill="#E3E7EA"/>
<path d="M20 21.1719H27.0312C27.679 21.1719 28.2031 20.6477 28.2031 20C28.2031 19.3523 27.679 18.8281 27.0312 18.8281H20V21.1719Z" fill="#E3E7EA"/>
<path d="M35.2344 10.5469H27.0312C25.7422 10.5469 24.6875 9.49219 24.6875 8.20312V0C24.9922 0 25.2969 0.117188 25.5077 0.351641L34.8827 9.72664C35.1172 9.9375 35.2344 10.2422 35.2344 10.5469Z" fill="#9B7ED0"/>
</svg>
