<svg width="24" height="24" viewBox="0 0 24 24" fill="none" xmlns="http://www.w3.org/2000/svg">
<path fill-rule="evenodd" clip-rule="evenodd" d="M13.8776 3.32458C14.5909 2.67824 15.5255 2.33096 16.4878 2.35465C17.4501 2.37835 18.3665 2.7712 19.0472 3.45187C19.7278 4.13254 20.1207 5.04889 20.1444 6.01122C20.1681 6.97354 19.8208 7.90812 19.1745 8.62146C19.1674 8.62928 19.1601 8.63696 19.1527 8.64448L9.84332 18.0851C9.83345 18.0951 9.8233 18.1048 9.81288 18.1143C9.38488 18.5021 8.82413 18.7105 8.24674 18.6962C7.66934 18.682 7.11953 18.4463 6.71113 18.0379C6.30272 17.6295 6.06701 17.0797 6.0528 16.5023C6.03858 15.9249 6.24695 15.3642 6.63476 14.9362C6.64162 14.9286 6.64864 14.9211 6.65581 14.9139L14.4652 6.97323C14.7556 6.6779 15.2305 6.67395 15.5258 6.96439C15.8211 7.25483 15.8251 7.72969 15.5346 8.02501L7.73788 15.9528C7.61404 16.0942 7.54771 16.2772 7.55234 16.4654C7.55708 16.6578 7.63565 16.8411 7.77179 16.9773C7.90792 17.1134 8.09119 17.192 8.28366 17.1967C8.47029 17.2013 8.65171 17.1361 8.79262 17.0143L18.0727 7.60335C18.4542 7.17675 18.6589 6.62062 18.6448 6.04814C18.6306 5.47074 18.3949 4.92093 17.9865 4.51253C17.5781 4.10412 17.0283 3.86841 16.4509 3.8542C15.88 3.84014 15.3254 4.04367 14.8993 4.42307L5.60214 13.8513C4.8999 14.5536 4.50537 15.506 4.50537 16.4991C4.50537 17.4922 4.89988 18.4447 5.60212 19.1469C6.30436 19.8492 7.2568 20.2437 8.24992 20.2437C9.24303 20.2437 10.1955 19.8492 10.8977 19.1469L18.5952 11.4681C18.8885 11.1756 19.3634 11.1762 19.6559 11.4694C19.9484 11.7627 19.9479 12.2376 19.6546 12.5301L11.9584 20.2076C10.9748 21.1911 9.64086 21.7437 8.24992 21.7437C6.85898 21.7437 5.52501 21.1911 4.54146 20.2076C3.55792 19.224 3.00537 17.8901 3.00537 16.4991C3.00537 15.1091 3.55719 13.776 4.53953 12.7926L13.8471 3.35377C13.857 3.34376 13.8672 3.33402 13.8776 3.32458Z" fill="#6EBAC4"/>
</svg>
