<svg width="40" height="40" viewBox="0 0 40 40" fill="none" xmlns="http://www.w3.org/2000/svg">
<path d="M38.75 33.7505H21.25C20.56 33.7505 20 33.193 20 32.5005C20 31.808 20 8.19049 20 7.50049C20 6.81049 20.56 6.25049 21.25 6.25049H38.75C39.44 6.25049 40 6.81049 40 7.50049V32.5005C40 33.193 39.44 33.7505 38.75 33.7505Z" fill="#ECEFF1"/>
<path d="M33.75 13.7505H21.25C20.56 13.7505 20 13.193 20 12.5005C20 11.808 20.56 11.2505 21.25 11.2505H33.75C34.44 11.2505 35 11.8105 35 12.5005C35 13.1905 34.44 13.7505 33.75 13.7505Z" fill="#1976D2"/>
<path d="M33.75 18.7505H21.25C20.56 18.7505 20 18.193 20 17.5005C20 16.808 20.56 16.2505 21.25 16.2505H33.75C34.44 16.2505 35 16.8105 35 17.5005C35 18.1905 34.44 18.7505 33.75 18.7505Z" fill="#1976D2"/>
<path d="M33.75 23.7505H21.25C20.56 23.7505 20 23.193 20 22.5005C20 21.808 20.56 21.2505 21.25 21.2505H33.75C34.44 21.2505 35 21.8105 35 22.5005C35 23.1905 34.44 23.7505 33.75 23.7505Z" fill="#1976D2"/>
<path d="M33.75 28.7505H21.25C20.56 28.7505 20 28.193 20 27.5005C20 26.808 20.56 26.2505 21.25 26.2505H33.75C34.44 26.2505 35 26.8105 35 27.5005C35 28.1905 34.44 28.7505 33.75 28.7505Z" fill="#1976D2"/>
<path d="M22.0475 1.54018C21.7625 1.30018 21.38 1.20018 21.02 1.27268L1.02 5.02268C0.43 5.13268 0 5.65018 0 6.25018V33.7502C0 34.3502 0.4275 34.8677 1.02 34.9777L21.02 38.7277C21.0975 38.7427 21.1725 38.7502 21.25 38.7502C21.54 38.7502 21.8225 38.6502 22.0475 38.4627C22.335 38.2252 22.5 37.8727 22.5 37.5002V2.50018C22.5 2.12768 22.335 1.77768 22.0475 1.54018Z" fill="#1565C0"/>
<path d="M16.2426 26.3901C16.1776 26.9626 15.7276 27.4201 15.1551 27.4901C15.1026 27.4976 15.0526 27.5001 15.0001 27.5001C14.4851 27.5001 14.0151 27.1801 13.8301 26.6901L11.2501 19.8101L8.67007 26.6901C8.47007 27.2251 7.94507 27.5526 7.36507 27.4926C6.79757 27.4326 6.34257 26.9926 6.26257 26.4251L5.01257 17.6751C4.91507 16.9951 5.39007 16.3601 6.07257 16.2626C6.75757 16.1626 7.39007 16.6401 7.48757 17.3226L8.04507 21.2326L10.0776 15.8101C10.4426 14.8351 12.0526 14.8351 12.4201 15.8101L14.3351 20.9151L15.0076 14.8601C15.0851 14.1751 15.7201 13.6826 16.3876 13.7551C17.0751 13.8351 17.5676 14.4526 17.4926 15.1376L16.2426 26.3901Z" fill="#FAFAFA"/>
</svg>
