<svg width="130" height="40" viewBox="0 0 130 40" fill="none" xmlns="http://www.w3.org/2000/svg">
<path fill-rule="evenodd" clip-rule="evenodd" d="M17.2384 40L8.61919 34.9997L0.00244794 29.9994H0V19.9988V9.99817L5.74531 13.3333V19.9988V26.6642V26.6667L5.75021 26.6691L11.4931 29.9994L17.2384 33.3321V40Z" fill="#B7DDE2"/>
<path fill-rule="evenodd" clip-rule="evenodd" d="M34.4765 29.9994L25.8573 34.9997L17.2406 39.9951L17.2382 40V33.3321L17.248 33.3272L22.9835 29.9994L28.7288 26.6667V26.6642L22.9835 23.3315L20.112 24.9991L17.2528 26.6568L17.2382 26.6642V20.0111V19.9988L17.248 19.9914L22.9835 16.6661L28.7288 13.3333L34.4765 9.99817V10.0228V19.9988V29.9969V29.9994Z" fill="#6EBAC4"/>
<path fill-rule="evenodd" clip-rule="evenodd" d="M17.2384 0L17.2775 0.0245957L25.8576 5.00031L34.4768 9.99815L28.729 13.3333L22.9837 9.99815L17.2726 6.68511L17.2384 6.66544L11.4931 9.99815L5.76245 13.3235L5.74531 13.3333L0 9.99815L0.0195835 9.98586L8.61919 5.00031L17.2384 0Z" fill="#46A2AF"/>
<path fill-rule="evenodd" clip-rule="evenodd" d="M17.2382 26.6642L14.3643 24.9991L11.5003 23.3364L11.4929 23.3315L17.2382 19.9988V20.0111V26.6642Z" fill="#B7DDE2"/>
<path fill-rule="evenodd" clip-rule="evenodd" d="M17.2382 13.3334L17.2652 13.3481L20.1121 14.9985L22.9835 16.6661L17.2382 19.9988L11.4929 16.6661L11.5052 16.6587L14.3643 14.9985L17.2382 13.3334Z" fill="#46A2AF"/>
<path d="M49.5929 13.9802L53.4166 17.062V30.5331H49.5929V28.8114C48.0262 30.2871 46.3404 31.025 44.5355 31.025C43.4695 31.0496 42.4112 30.839 41.4351 30.4081C40.4589 29.9772 39.5887 29.3364 38.8856 28.531C37.4169 26.8421 36.6825 24.7342 36.6825 22.2074C36.6825 19.7249 37.4169 17.6572 38.8856 16.0044C39.5727 15.2073 40.4262 14.5721 41.3854 14.144C42.3445 13.7159 43.3858 13.5055 44.4351 13.5276C46.351 13.5276 48.0703 14.3212 49.5929 15.9085V13.9802ZM40.5625 22.205C40.5625 23.7922 40.9852 25.0835 41.8305 26.0788C42.2292 26.5622 42.7311 26.9492 43.2989 27.211C43.8668 27.4729 44.486 27.6029 45.1107 27.5914C45.7538 27.6165 46.3945 27.4986 46.9869 27.246C47.5793 26.9935 48.1089 26.6125 48.5379 26.1305C49.4061 25.122 49.8402 23.8414 49.8402 22.2886C49.8402 20.7358 49.4028 19.4552 48.5281 18.4468C48.1083 17.9642 47.5869 17.5815 47.0019 17.3263C46.4168 17.0711 45.7825 16.9497 45.145 16.971C44.5214 16.9601 43.9031 17.0885 43.3349 17.3472C42.7668 17.6058 42.2629 17.9881 41.8599 18.4664C40.9813 19.508 40.5189 20.8403 40.5625 22.205Z" fill="#6EBAC4"/>
<path d="M129.985 23.1568H118.181C118.283 24.5178 118.722 25.6 119.501 26.4035C119.892 26.7978 120.359 27.1069 120.874 27.3113C121.39 27.5157 121.941 27.6111 122.495 27.5914C123.331 27.6235 124.155 27.3856 124.847 26.9126C125.454 26.46 125.826 26.1206 126.615 24.8958C126.615 24.8958 128.913 28.076 128.92 28.0932C128.281 28.7689 127.567 29.3681 126.791 29.8788C126.157 30.2702 125.467 30.5598 124.744 30.7372C123.962 30.9228 123.161 31.0137 122.358 31.0078C119.9 31.0078 117.927 30.215 116.438 28.6294C114.95 27.0438 114.206 24.9253 114.206 22.2739C114.206 19.6503 114.928 17.531 116.372 15.9159C117.826 14.3237 119.753 13.5276 122.152 13.5276C124.551 13.5276 126.468 14.304 127.902 15.8568C129.301 17.3965 130 19.5323 130 22.264L129.985 23.1568ZM126.069 20.0283C125.546 17.9901 124.27 16.971 122.24 16.971C121.797 16.9683 121.357 17.0397 120.938 17.1825C120.537 17.3224 120.163 17.5295 119.831 17.795C119.495 18.0639 119.206 18.3883 118.977 18.7542C118.731 19.1476 118.548 19.5776 118.436 20.0283H126.069Z" fill="#6EBAC4"/>
<path d="M108.527 18.0237V31.0078H104.706V18.0237H103.352V14.4549H104.706V8.06003C104.706 5.97677 105.063 4.50349 105.788 3.6328C106.78 2.42925 108.223 1.8283 110.116 1.82994C110.996 1.87529 111.861 2.0768 112.671 2.42515V6.34817L112.282 6.14894C111.46 5.73082 110.782 5.52175 110.253 5.52175C109.575 5.52175 109.119 5.76771 108.882 6.25962C108.644 6.75154 108.527 7.65174 108.527 9.01188V14.4549H112.671V18.0237H108.527Z" fill="#6EBAC4"/>
<path d="M95.6898 7.57304C95.6887 7.25088 95.7533 6.93191 95.8796 6.6358C96.0059 6.33969 96.1912 6.07271 96.4241 5.85134C96.6486 5.61524 96.9188 5.42793 97.2182 5.30101C97.5176 5.17409 97.8397 5.11026 98.1646 5.11347C98.4926 5.10902 98.818 5.1722 99.1208 5.29912C99.4235 5.42603 99.6971 5.61398 99.9247 5.85134C100.161 6.07555 100.349 6.34686 100.475 6.64795C100.602 6.94905 100.664 7.27333 100.659 7.60009C100.664 7.92969 100.601 8.25674 100.475 8.56095C100.348 8.86516 100.161 9.14004 99.9247 9.36852C99.7011 9.60636 99.4306 9.79479 99.1306 9.92183C98.8305 10.0489 98.5073 10.1117 98.1818 10.1064C97.8517 10.1077 97.5246 10.0429 97.2197 9.91572C96.9148 9.78851 96.6383 9.60148 96.4062 9.36557C96.1742 9.12967 95.9913 8.84962 95.8683 8.54183C95.7452 8.23404 95.6846 7.90468 95.6898 7.57304ZM100.069 17.5368V31.0078H96.2626V14.4549L100.069 17.5368Z" fill="#6EBAC4"/>
<path d="M92.0423 5.38644V31.0078H88.2284V2.3046L92.0423 5.38644Z" fill="#6EBAC4"/>
<path d="M65.7196 16.8013L62.574 18.4836C62.0844 17.4621 61.47 16.9522 60.7307 16.9538C60.3979 16.9468 60.0758 17.0723 59.8348 17.3031C59.7116 17.4166 59.6145 17.5557 59.5502 17.7107C59.486 17.8657 59.4561 18.033 59.4627 18.2008C59.4627 18.8354 60.1971 19.4642 61.6658 20.0873C63.6829 20.9613 65.0415 21.7664 65.7417 22.5026C66.4418 23.2388 66.791 24.23 66.7894 25.4762C66.8039 26.2326 66.6542 26.9831 66.3506 27.6755C66.0471 28.3679 65.597 28.9855 65.0318 29.4853C63.8992 30.5032 62.4237 31.0501 60.9045 31.0152C58.1416 31.0152 56.1833 29.6616 55.0295 26.9544L58.2779 25.4418C58.5557 25.9887 58.903 26.4972 59.3109 26.9544C59.7572 27.3787 60.3514 27.6101 60.9657 27.5988C62.2533 27.5988 62.8963 27.0102 62.8947 25.8328C62.8947 25.154 62.3986 24.5194 61.4064 23.9291C61.0245 23.734 60.641 23.5471 60.2558 23.3684L59.0906 22.8076C57.9841 22.2632 57.2057 21.7188 56.7553 21.1744C56.1581 20.4188 55.8522 19.4722 55.8936 18.5082C55.874 17.8429 55.9947 17.181 56.2479 16.5659C56.501 15.9508 56.8808 15.3965 57.3624 14.9394C58.3483 14.004 59.6614 13.4967 61.0171 13.5276C63.1273 13.5276 64.6948 14.6188 65.7196 16.8013Z" fill="#6EBAC4"/>
<path d="M79.127 24.18L84.4978 13.5203H80.2016L77.0095 20.139L79.127 24.18Z" fill="#6EBAC4"/>
<path d="M75.5089 23.0191L75.4992 23.0388L70.4589 13.5203H66.0452L73.4527 26.9987L67.0269 39.0801H71.3719L77.5995 26.9569L75.5089 23.0191Z" fill="#6EBAC4"/>
</svg>
