<svg width="12" height="12" viewBox="0 0 12 12" fill="none" xmlns="http://www.w3.org/2000/svg">
<path d="M11.3036 11.2969H10.3761V0.351562C10.3761 0.157406 10.2187 0 10.0245 0H1.97556C1.78141 0 1.624 0.157406 1.624 0.351562V11.2969H0.696533C0.502377 11.2969 0.344971 11.4543 0.344971 11.6484C0.344971 11.8426 0.502377 12 0.696533 12H11.3036C11.4978 12 11.6552 11.8426 11.6552 11.6484C11.6552 11.4543 11.4978 11.2969 11.3036 11.2969ZM4.80168 11.2969V8.90013H7.19842V11.2969H4.80168ZM7.90155 11.2969V8.54857C7.90155 8.35441 7.74414 8.19701 7.54999 8.19701H4.45012C4.25596 8.19701 4.09856 8.35441 4.09856 8.54857V11.2969H2.32713V0.703125H9.67298V11.2969H7.90155Z" fill="#000000"/>
<path d="M5.24408 1.5542H3.52124C3.32708 1.5542 3.16968 1.71161 3.16968 1.90576V3.62861C3.16968 3.82276 3.32708 3.98017 3.52124 3.98017H5.24408C5.43824 3.98017 5.59565 3.82276 5.59565 3.62861V1.90576C5.59565 1.71161 5.43824 1.5542 5.24408 1.5542ZM4.89252 3.27704H3.8728V2.25732H4.89252V3.27704Z" fill="#000000"/>
<path d="M8.4787 1.5542H6.75586C6.5617 1.5542 6.4043 1.71161 6.4043 1.90576V3.62861C6.4043 3.82276 6.5617 3.98017 6.75586 3.98017H8.4787C8.67286 3.98017 8.83027 3.82276 8.83027 3.62861V1.90576C8.83027 1.71161 8.67286 1.5542 8.4787 1.5542ZM8.12714 3.27704H7.10742V2.25732H8.12714V3.27704Z" fill="#000000"/>
<path d="M5.24408 4.82666H3.52124C3.32708 4.82666 3.16968 4.98407 3.16968 5.17822V6.90105C3.16968 7.09521 3.32708 7.25261 3.52124 7.25261H5.24408C5.43824 7.25261 5.59565 7.09521 5.59565 6.90105V5.17822C5.59565 4.98407 5.43824 4.82666 5.24408 4.82666ZM4.89252 6.54949H3.8728V5.52978H4.89252V6.54949Z" fill="#000000"/>
<path d="M8.4787 4.82666H6.75586C6.5617 4.82666 6.4043 4.98407 6.4043 5.17822V6.90105C6.4043 7.09521 6.5617 7.25261 6.75586 7.25261H8.4787C8.67286 7.25261 8.83027 7.09521 8.83027 6.90105V5.17822C8.83027 4.98407 8.67286 4.82666 8.4787 4.82666ZM8.12714 6.54949H7.10742V5.52978H8.12714V6.54949Z" fill="#000000"/>
</svg>
