<svg width="24" height="24" viewBox="0 0 24 24" fill="none" xmlns="http://www.w3.org/2000/svg">
<g clip-path="url(#clip0)">
<path d="M22.952 1.56229C21.869 0.979136 20.661 2.10379 19.9529 2.77025C18.3284 4.3531 16.9539 6.18587 15.4126 7.85203C13.7048 9.6848 12.1219 11.5176 10.3725 13.3088C9.37277 14.3085 8.28977 15.3915 7.62331 16.6411C6.12377 15.1831 4.8325 13.6003 3.16634 12.3091C1.95838 11.3927 -0.0410133 10.7262 0.000640602 12.9339C0.0839485 15.8081 2.62484 18.8904 4.49927 20.8481C5.29069 21.6812 6.33204 22.5559 7.54 22.5976C8.99789 22.6809 10.4974 20.9314 11.3722 19.9734C12.9134 18.3072 14.163 16.4327 15.5792 14.725C17.412 12.4757 19.2864 10.268 21.0775 7.97699C22.2022 6.56076 25.7428 3.06176 22.952 1.56229ZM1.83335 12.7673C1.79169 12.7673 1.75004 12.7673 1.66673 12.8088C1.50011 12.7673 1.37515 12.7255 1.20854 12.6422C1.3335 12.5589 1.54177 12.6006 1.83335 12.7673Z" fill="#52CB67"/>
</g>
<defs>
<clipPath id="clip0">
<rect width="24" height="24" fill="white"/>
</clipPath>
</defs>
</svg>
