<svg width="24" height="24" viewBox="0 0 24 24" fill="none" xmlns="http://www.w3.org/2000/svg">
<path d="M24 12C24 11.1072 23.5517 10.3192 22.868 9.84858C22.4101 9.53339 22.2488 8.93105 22.4877 8.42916C22.8445 7.67972 22.8387 6.7732 22.3923 6C21.9459 5.2268 21.1637 4.7685 20.3363 4.70278C19.7821 4.65877 19.3412 4.21781 19.2972 3.6637C19.2315 2.83627 18.7732 2.05411 18 1.60767C17.2267 1.16123 16.3203 1.15547 15.5708 1.51228C15.069 1.7512 14.4666 1.58981 14.1515 1.13194C13.6808 0.448266 12.8928 0 12 0C11.1072 0 10.3192 0.448266 9.84858 1.13198C9.53339 1.58986 8.93109 1.75125 8.4292 1.51233C7.67977 1.15556 6.77325 1.16133 6.00005 1.60772C5.22684 2.05416 4.76855 2.83631 4.70283 3.66375C4.65881 4.21786 4.21786 4.65881 3.66375 4.70283C2.83631 4.7685 2.05411 5.2268 1.60772 6C1.16128 6.77325 1.15552 7.67972 1.51233 8.42916C1.75125 8.93105 1.58986 9.53339 1.13198 9.84858C0.448266 10.3192 0 11.1072 0 12C0 12.8928 0.448266 13.6808 1.13198 14.1514C1.58986 14.4666 1.75125 15.069 1.51233 15.5708C1.15552 16.3203 1.16133 17.2268 1.60772 18C2.05416 18.7733 2.83631 19.2315 3.66375 19.2972C4.21786 19.3412 4.65881 19.7822 4.70283 20.3363C4.76855 21.1637 5.2268 21.9459 6.00005 22.3923C6.77325 22.8388 7.67977 22.8445 8.4292 22.4877C8.93109 22.2488 9.53344 22.4102 9.84863 22.8681C10.3192 23.5517 11.1072 24 12 24C12.8928 24 13.6808 23.5517 14.1514 22.8681C14.4666 22.4102 15.069 22.2488 15.5708 22.4877C16.3203 22.8445 17.2268 22.8387 18 22.3923C18.7732 21.9459 19.2315 21.1637 19.2972 20.3363C19.3412 19.7822 19.7822 19.3412 20.3363 19.2972C21.1637 19.2315 21.9459 18.7733 22.3923 18C22.8388 17.2267 22.8445 16.3203 22.4877 15.5708C22.2488 15.069 22.4102 14.4666 22.8681 14.1514C23.5517 13.6808 24 12.8928 24 12Z" fill="#FEE45A"/>
<path d="M22.868 9.84839C22.4103 9.53334 22.2489 8.93119 22.4879 8.4292C22.8444 7.67963 22.8386 6.77302 22.3925 5.99981C21.9845 5.29359 21.2966 4.84992 20.5499 4.72852C20.9025 4.9477 21.2075 5.25455 21.429 5.6385C21.5783 5.8972 21.6822 6.18164 21.7358 6.47545C21.8386 7.03819 21.7265 7.58119 21.5082 8.10441C21.4605 8.21883 21.4268 8.3363 21.3985 8.45677C21.2594 9.04936 21.5541 9.72928 21.9971 10.1378C22.2199 10.3433 22.4562 10.5372 22.6522 10.7696C22.9673 11.1431 23.0785 11.5628 23.0057 12.0496C22.9014 12.7467 22.4824 13.3921 21.9045 13.7899C21.4469 14.105 21.2855 14.7076 21.5244 15.2096C21.8809 15.9587 21.8752 16.8653 21.429 17.6385C20.8391 18.661 19.5035 18.2391 18.7737 18.9886C18.5169 19.2524 18.3629 19.6091 18.3339 19.975C18.2978 20.4305 18.1393 20.8767 17.8809 21.2522C17.7309 21.4701 17.5147 21.6322 17.2717 21.7335C16.7517 21.9504 16.1557 21.7786 15.6311 21.6738C15.0216 21.5521 14.4167 21.5602 13.8679 21.8804C13.5997 22.0368 13.3641 22.2504 13.188 22.5064C12.7173 23.1905 11.9292 23.6385 11.0366 23.6385C10.8944 23.6385 10.7552 23.6269 10.6194 23.6053C11.0202 23.8553 11.4932 23.9998 12 23.9998C12.8927 23.9998 13.6808 23.5518 14.1515 22.8677C14.4665 22.4101 15.0692 22.2487 15.5707 22.4876C16.3202 22.8446 17.2268 22.8388 18 22.3922C18.7732 21.9457 19.2314 21.1638 19.2974 20.3362C19.3412 19.7822 19.782 19.341 20.3364 19.2971C21.1636 19.2315 21.9459 18.773 22.3925 17.9998C22.8385 17.2266 22.8443 16.32 22.4879 15.5708C22.2489 15.0689 22.4103 14.4662 22.8679 14.1512C23.552 13.6806 24 12.8929 24 11.9998C24 11.1071 23.552 10.319 22.868 9.84839Z" fill="#FED402"/>
<path d="M11.9999 20.3306C16.6069 20.3306 20.3415 16.596 20.3415 11.9891C20.3415 7.38212 16.6069 3.64746 11.9999 3.64746C7.39298 3.64746 3.65833 7.38212 3.65833 11.9891C3.65833 16.596 7.39298 20.3306 11.9999 20.3306Z" fill="#FAF7F7"/>
<path d="M20.3417 11.989C20.3417 16.5958 16.6068 20.3307 12 20.3307C10.5186 20.3307 9.12837 19.9448 7.92261 19.268C8.88125 19.6524 9.92853 19.8638 11.0245 19.8638C15.6313 19.8638 19.3662 16.1295 19.3662 11.5226C19.3662 8.39522 17.6454 5.67005 15.099 4.24219C18.1714 5.47209 20.3417 8.47716 20.3417 11.989Z" fill="#EDE1DD"/>
<path d="M10.7418 16.0513C10.7392 16.0513 10.7367 16.0513 10.734 16.0512C10.3826 16.049 10.0495 15.8944 9.82075 15.6276L7.39093 12.7928C6.95495 12.2842 7.01382 11.5184 7.52251 11.0823C8.03115 10.6463 8.797 10.7053 9.23303 11.2139L10.7536 12.9879L14.7771 8.33865C15.2196 7.83559 15.9861 7.78655 16.4892 8.22896C16.9922 8.67146 17.0413 9.43796 16.5988 9.94102L11.6527 15.6394C11.4223 15.9013 11.0904 16.0513 10.7418 16.0513Z" fill="#A2AEE6"/>
<path d="M16.5986 9.94116L11.6527 15.6396C11.4224 15.9011 11.0905 16.0514 10.7417 16.0514C10.7393 16.0514 10.7369 16.0514 10.734 16.051C10.3828 16.0491 10.0494 15.8944 9.82065 15.6275L9.57446 15.3404C9.66165 15.3611 9.75174 15.3722 9.84324 15.3727H9.85093C10.1997 15.3727 10.5316 15.2228 10.7619 14.9608L15.7084 9.26236C16.0374 8.88807 16.0942 8.36827 15.8948 7.94434C16.1082 7.98095 16.3149 8.07535 16.4892 8.22905C16.9922 8.67132 17.0414 9.43824 16.5986 9.94116Z" fill="#8795DE"/>
</svg>
