<svg width="16" height="16" viewBox="0 0 16 16" fill="none" xmlns="http://www.w3.org/2000/svg">
<path d="M15.5 13.5005H8.5C8.224 13.5005 8 13.2765 8 13.0005C8 12.7245 8 3.27649 8 3.00049C8 2.72449 8.224 2.50049 8.5 2.50049H15.5C15.776 2.50049 16 2.72449 16 3.00049V13.0005C16 13.2765 15.776 13.5005 15.5 13.5005Z" fill="#ECEFF1"/>
<path d="M10.5 5.50049H8.5C8.224 5.50049 8 5.27649 8 5.00049C8 4.72449 8.224 4.50049 8.5 4.50049H10.5C10.776 4.50049 11 4.72449 11 5.00049C11 5.27649 10.776 5.50049 10.5 5.50049Z" fill="#388E3C"/>
<path d="M10.5 7.50049H8.5C8.224 7.50049 8 7.27649 8 7.00049C8 6.72449 8.224 6.50049 8.5 6.50049H10.5C10.776 6.50049 11 6.72449 11 7.00049C11 7.27649 10.776 7.50049 10.5 7.50049Z" fill="#388E3C"/>
<path d="M10.5 9.50049H8.5C8.224 9.50049 8 9.27649 8 9.00049C8 8.72449 8.224 8.50049 8.5 8.50049H10.5C10.776 8.50049 11 8.72449 11 9.00049C11 9.27649 10.776 9.50049 10.5 9.50049Z" fill="#388E3C"/>
<path d="M10.5 11.5005H8.5C8.224 11.5005 8 11.2765 8 11.0005C8 10.7245 8.224 10.5005 8.5 10.5005H10.5C10.776 10.5005 11 10.7245 11 11.0005C11 11.2765 10.776 11.5005 10.5 11.5005Z" fill="#388E3C"/>
<path d="M13.5 5.50049H12.5C12.224 5.50049 12 5.27649 12 5.00049C12 4.72449 12.224 4.50049 12.5 4.50049H13.5C13.776 4.50049 14 4.72449 14 5.00049C14 5.27649 13.776 5.50049 13.5 5.50049Z" fill="#388E3C"/>
<path d="M13.5 7.50049H12.5C12.224 7.50049 12 7.27649 12 7.00049C12 6.72449 12.224 6.50049 12.5 6.50049H13.5C13.776 6.50049 14 6.72449 14 7.00049C14 7.27649 13.776 7.50049 13.5 7.50049Z" fill="#388E3C"/>
<path d="M13.5 9.50049H12.5C12.224 9.50049 12 9.27649 12 9.00049C12 8.72449 12.224 8.50049 12.5 8.50049H13.5C13.776 8.50049 14 8.72449 14 9.00049C14 9.27649 13.776 9.50049 13.5 9.50049Z" fill="#388E3C"/>
<path d="M13.5 11.5005H12.5C12.224 11.5005 12 11.2765 12 11.0005C12 10.7245 12.224 10.5005 12.5 10.5005H13.5C13.776 10.5005 14 10.7245 14 11.0005C14 11.2765 13.776 11.5005 13.5 11.5005Z" fill="#388E3C"/>
<path d="M8.819 0.615185C8.705 0.520185 8.552 0.479185 8.408 0.509185L0.408 2.00919C0.171 2.05319 0 2.25919 0 2.50019V13.5002C0 13.7402 0.171 13.9472 0.408 13.9912L8.408 15.4912C8.438 15.4972 8.469 15.5002 8.5 15.5002C8.616 15.5002 8.729 15.4602 8.819 15.3852C8.934 15.2902 9 15.1482 9 15.0002V1.00019C9 0.851186 8.934 0.710185 8.819 0.615185Z" fill="#2E7D32"/>
<path d="M6.87603 9.67149L5.29503 7.86449L6.89403 5.80849C7.06403 5.59049 7.02403 5.27649 6.80703 5.10649C6.59003 4.93649 6.27603 4.97649 6.10503 5.19349L4.62403 7.09749L3.37603 5.67149C3.19303 5.46149 2.87703 5.44249 2.67103 5.62449C2.46303 5.80649 2.44203 6.12249 2.62403 6.32949L3.99903 7.90149L2.60503 9.69349C2.43503 9.91149 2.47503 10.2255 2.69203 10.3955C2.78403 10.4665 2.89303 10.5005 3.00003 10.5005C3.14903 10.5005 3.29603 10.4345 3.39503 10.3075L4.67003 8.66749L6.12403 10.3285C6.22303 10.4425 6.36103 10.5005 6.50003 10.5005C6.61703 10.5005 6.73403 10.4595 6.82903 10.3765C7.03703 10.1945 7.05803 9.87849 6.87603 9.67149Z" fill="#FAFAFA"/>
</svg>
