<?xml version="1.0" standalone="no"?>
<!DOCTYPE svg PUBLIC "-//W3C//DTD SVG 20010904//EN"
 "http://www.w3.org/TR/2001/REC-SVG-20010904/DTD/svg10.dtd">
<svg version="1.0" xmlns="http://www.w3.org/2000/svg"
 width="512.000000pt" height="512.000000pt" viewBox="0 0 512.000000 512.000000"
 preserveAspectRatio="xMidYMid meet">

<g transform="translate(0.000000,512.000000) scale(0.100000,-0.100000)"
fill="#000000" stroke="none">
<path d="M1740 5109 c-41 -17 -80 -60 -91 -101 -20 -75 22 -147 111 -193 17
-9 30 -19 30 -24 0 -4 -39 -22 -87 -41 -337 -127 -690 -379 -927 -659 -296
-352 -472 -741 -543 -1201 -24 -159 -24 -501 0 -660 132 -858 679 -1548 1477
-1864 136 -53 358 -114 450 -122 57 -5 69 -3 99 18 53 36 74 71 74 121 0 50
-25 100 -63 128 -14 10 -72 27 -130 39 -427 88 -838 329 -1125 663 -256 297
-413 632 -482 1032 -24 140 -24 490 0 630 107 618 451 1130 969 1443 123 74
388 197 376 174 -56 -106 -70 -146 -64 -180 16 -103 123 -158 215 -110 41 21
53 37 143 198 150 265 161 289 160 338 -1 75 -25 97 -265 242 -228 138 -268
154 -327 129z"/>
<path d="M2860 4859 c-43 -27 -57 -44 -70 -89 -13 -46 2 -101 38 -141 24 -27
44 -34 153 -59 841 -189 1445 -820 1601 -1670 31 -166 31 -514 0 -680 -111
-606 -453 -1110 -964 -1418 -123 -74 -387 -197 -376 -175 64 128 70 146 64
181 -16 103 -123 158 -215 110 -42 -22 -53 -37 -168 -243 -68 -121 -128 -236
-133 -255 -11 -41 1 -93 29 -127 10 -11 116 -81 237 -155 207 -125 222 -133
271 -133 86 0 147 60 147 145 0 61 -20 91 -92 140 -28 19 -51 37 -52 40 0 3
39 20 88 39 1195 468 1792 1818 1337 3026 -280 746 -941 1311 -1717 1469 -102
21 -136 20 -178 -5z"/>
<path d="M2380 4001 c-288 -61 -523 -246 -650 -512 -58 -122 -80 -219 -87
-382 l-6 -138 -28 -15 c-50 -25 -127 -112 -161 -181 l-33 -68 0 -575 0 -575
23 -58 c28 -67 112 -163 177 -201 97 -57 90 -57 971 -54 l809 3 58 23 c66 27
163 111 200 175 57 98 58 105 55 708 -3 553 -3 554 -26 604 -34 74 -94 148
-150 183 l-49 32 -6 138 c-7 162 -29 259 -87 381 -184 385 -604 597 -1010 512z
m324 -301 c284 -72 475 -320 476 -617 l0 -73 -620 0 -620 0 0 73 c1 295 191
543 472 617 95 25 196 25 292 0z m672 -1024 l34 -34 0 -514 c0 -563 2 -541
-60 -573 -44 -23 -1536 -23 -1580 0 -62 32 -60 10 -60 573 l0 514 34 34 34 34
782 0 782 0 34 -34z"/>
<path d="M2484 2355 c-65 -39 -76 -75 -72 -243 3 -123 6 -144 24 -168 37 -50
72 -69 124 -69 52 0 87 19 124 69 19 24 21 45 24 172 3 135 2 146 -20 185 -43
76 -129 99 -204 54z"/>
</g>
</svg>
