<svg width="24" height="24" viewBox="0 0 24 24" fill="none" xmlns="http://www.w3.org/2000/svg">
<g clip-path="url(#clip0)">
<path d="M12 17C11.795 17 11.599 16.916 11.457 16.768L6.20697 11.268C5.75197 10.791 6.09397 10 6.74997 10H9.49997V8.75C9.49997 4.477 12.977 1 17.25 1C17.664 1 18 1.336 18 1.75C18 2.164 17.664 2.5 17.25 2.5C15.733 2.5 14.5 3.733 14.5 5.25V10H17.25C17.906 10 18.248 10.791 17.793 11.268L12.543 16.768C12.401 16.916 12.205 17 12 17Z" fill="#00BCD4"/>
<path d="M21 18H3C1.346 18 0 19.346 0 21C0 22.654 1.346 24 3 24H21C22.654 24 24 22.654 24 21C24 19.346 22.654 18 21 18Z" fill="#ABBCC5"/>
<path d="M21 22.5H11V19.5H21C21.827 19.5 22.5 20.173 22.5 21C22.5 21.827 21.827 22.5 21 22.5Z" fill="#00BCD4"/>
<path d="M12 3.0542C10.464 4.4712 9.49997 6.5002 9.49997 8.7502V10.0002H6.74997C6.09397 10.0002 5.75197 10.7912 6.20697 11.2682L11.457 16.7682C11.599 16.9162 11.795 17.0002 12 17.0002V3.0542Z" fill="#00A4B9"/>
<path d="M12 18H3C1.346 18 0 19.346 0 21C0 22.654 1.346 24 3 24H12V22.5H11V19.5H12V18Z" fill="#648290"/>
<path d="M12 19.5H11V22.5H12V19.5Z" fill="#00A4B9"/>
</g>
<defs>
<clipPath id="clip0">
<rect width="24" height="24" fill="white"/>
</clipPath>
</defs>
</svg>
