<svg width="24" height="24" viewBox="0 0 24 24" fill="none" xmlns="http://www.w3.org/2000/svg">
<path d="M6 7.5C6 7.086 5.664 6.75 5.25 6.75H0.75C0.336 6.75 0 7.086 0 7.5C0 7.914 0.336 8.25 0.75 8.25H5.25C5.664 8.25 6 7.914 6 7.5Z" fill="#FFC107"/>
<path d="M5.25 9.75H2.25C1.836 9.75 1.5 10.086 1.5 10.5C1.5 10.914 1.836 11.25 2.25 11.25H5.25C5.664 11.25 6 10.914 6 10.5C6 10.086 5.664 9.75 5.25 9.75Z" fill="#FFC107"/>
<path d="M5.25 12.75H3.75C3.336 12.75 3 13.086 3 13.5C3 13.914 3.336 14.25 3.75 14.25H5.25C5.664 14.25 6 13.914 6 13.5C6 13.086 5.664 12.75 5.25 12.75Z" fill="#FFC107"/>
<path d="M23.8935 12.3645L21.6435 8.6145C21.5085 8.388 21.264 8.25 21 8.25H15.75C15.336 8.25 15 8.586 15 9V16.5C15 16.914 15.336 17.25 15.75 17.25H23.25C23.664 17.25 24 16.914 24 16.5V12.75C24 12.6135 23.964 12.48 23.8935 12.3645Z" fill="#F44336"/>
<path d="M18 9.75H20.5755L22.3755 12.75H18V9.75Z" fill="#FAFAFA"/>
<path d="M15.75 5.25H5.25C4.836 5.25 4.5 5.586 4.5 6V16.5C4.5 16.914 4.836 17.25 5.25 17.25H16.5V6C16.5 5.586 16.164 5.25 15.75 5.25Z" fill="#FFC107"/>
<path d="M20.25 18C21.0784 18 21.75 17.3284 21.75 16.5C21.75 15.6716 21.0784 15 20.25 15C19.4216 15 18.75 15.6716 18.75 16.5C18.75 17.3284 19.4216 18 20.25 18Z" fill="#FAFAFA"/>
<path d="M20.25 18.75C19.0095 18.75 18 17.7405 18 16.5C18 15.2595 19.0095 14.25 20.25 14.25C21.4905 14.25 22.5 15.2595 22.5 16.5C22.5 17.7405 21.4905 18.75 20.25 18.75ZM20.25 15.75C19.8375 15.75 19.5 16.0875 19.5 16.5C19.5 16.9125 19.8375 17.25 20.25 17.25C20.6625 17.25 21 16.9125 21 16.5C21 16.0875 20.6625 15.75 20.25 15.75Z" fill="#455A64"/>
<path d="M16.5 17.25H5.25C4.836 17.25 4.5 16.914 4.5 16.5V14.25H16.5V17.25Z" fill="#F44336"/>
<path d="M9.75 18C10.5784 18 11.25 17.3284 11.25 16.5C11.25 15.6716 10.5784 15 9.75 15C8.92157 15 8.25 15.6716 8.25 16.5C8.25 17.3284 8.92157 18 9.75 18Z" fill="#FAFAFA"/>
<path d="M9.75 18.75C8.5095 18.75 7.5 17.7405 7.5 16.5C7.5 15.2595 8.5095 14.25 9.75 14.25C10.9905 14.25 12 15.2595 12 16.5C12 17.7405 10.9905 18.75 9.75 18.75ZM9.75 15.75C9.336 15.75 9 16.0875 9 16.5C9 16.9125 9.336 17.25 9.75 17.25C10.164 17.25 10.5 16.9125 10.5 16.5C10.5 16.0875 10.164 15.75 9.75 15.75Z" fill="#455A64"/>
</svg>
